HIERARCHY
ROOT Hips
{
 OFFSET 0.000000 0.000000 0.000000
 CHANNELS 6 Xposition Yposition Zposition Yrotation Xrotation Zrotation
 JOINT Chest
 {
  OFFSET 0.000000 9.588913 -0.003946
  CHANNELS 3 Yrotation Xrotation Zrotation
  JOINT Chest2
  {
   OFFSET 0.000000 9.541882 0.008053
   CHANNELS 3 Yrotation Xrotation Zrotation
   JOINT Chest3
   {
    OFFSET 0.000000 9.501360 0.000000
    CHANNELS 3 Yrotation Xrotation Zrotation
    JOINT Chest4
    {
     OFFSET 0.000000 9.491660 0.000000
     CHANNELS 3 Yrotation Xrotation Zrotation
     JOINT Neck
     {
      OFFSET 0.000000 14.331917 0.000000
      CHANNELS 3 Yrotation Xrotation Zrotation
      JOINT Head
      {
       OFFSET 0.000000 8.884799 0.017034
       CHANNELS 3 Yrotation Xrotation Zrotation
       End Site
       {
        OFFSET 0.000000 16.896195 0.008993
       }
      }
     }
     JOINT RightCollar
     {
      OFFSET -2.923010 9.499495 0.000000
      CHANNELS 3 Yrotation Xrotation Zrotation
      JOINT RightShoulder
      {
       OFFSET -13.795216 0.000000 0.000000
       CHANNELS 3 Yrotation Xrotation Zrotation
       JOINT RightElbow
       {
        OFFSET -30.272209 0.000000 0.000000
        CHANNELS 3 Yrotation Xrotation Zrotation
        JOINT RightWrist
        {
         OFFSET -24.478199 0.000000 0.000000
         CHANNELS 3 Yrotation Xrotation Zrotation
         End Site
         {
          OFFSET -18.090752 0.000000 0.000000
         }
        }
       }
      }
     }
     JOINT LeftCollar
     {
      OFFSET 2.923010 9.499495 0.000000
      CHANNELS 3 Yrotation Xrotation Zrotation
      JOINT LeftShoulder
      {
       OFFSET 13.795216 0.000000 0.000000
       CHANNELS 3 Yrotation Xrotation Zrotation
       JOINT LeftElbow
       {
        OFFSET 30.272209 0.000000 0.000000
        CHANNELS 3 Yrotation Xrotation Zrotation
        JOINT LeftWrist
        {
         OFFSET 24.478199 0.000000 0.000000
         CHANNELS 3 Yrotation Xrotation Zrotation
         End Site
         {
          OFFSET 18.090752 0.000000 0.000000
         }
        }
       }
      }
     }
    }
   }
  }
 }
 JOINT RightHip
 {
  OFFSET -7.826875 0.019532 0.001973
  CHANNELS 3 Yrotation Xrotation Zrotation
  JOINT RightKnee
  {
   OFFSET 0.000000 -40.546152 -0.001885
   CHANNELS 3 Yrotation Xrotation Zrotation
   JOINT RightAnkle
   {
    OFFSET 0.000000 -39.417092 -0.003189
    CHANNELS 3 Yrotation Xrotation Zrotation
    JOINT RightToe
    {
     OFFSET 0.000000 -7.579396 17.243563
     CHANNELS 3 Yrotation Xrotation Zrotation
     End Site
     {
      OFFSET 0.000000 -1.500329 6.694466
     }
    }
   }
  }
 }
 JOINT LeftHip
 {
  OFFSET 7.826875 0.019532 0.001973
  CHANNELS 3 Yrotation Xrotation Zrotation
  JOINT LeftKnee
  {
   OFFSET 0.000000 -40.546152 -0.001885
   CHANNELS 3 Yrotation Xrotation Zrotation
   JOINT LeftAnkle
   {
    OFFSET 0.000000 -39.417092 -0.003189
    CHANNELS 3 Yrotation Xrotation Zrotation
    JOINT LeftToe
    {
     OFFSET 0.000000 -7.579396 17.243563
     CHANNELS 3 Yrotation Xrotation Zrotation
     End Site
     {
      OFFSET 0.000000 -1.500329 6.694466
     }
    }
   }
  }
 }
}
MOTION
Frames: 8
Frame Time: 0.008333
0.000000 87.345680 0.000000 0.000000 -5.767889 0.000000 0.000000 11.653876 0.000000 0.000000 -5.885988 0.000000 0.000000 -0.000000 0.000000 0.000000 -0.000000 0.000000 0.000000 12.528808 0.000000 0.000000 0.711711 0.000000 0.000000 -0.000000 0.000000 0.000000 -0.000000 0.000000 2.309063 -0.000000 0.000000 -2.309063 -0.000000 -0.000000 0.000000 -0.000000 0.000000 0.000000 0.000000 0.000000 -2.309063 0.000000 0.000000 2.309063 -0.000000 0.000000 0.000000 8.520374 0.000000 0.000000 1.905768 0.000000 -0.000000 -4.658254 0.000000 0.000000 -0.000000 0.000000 0.000000 8.520374 0.000000 0.000000 1.905768 0.000000 -0.000000 -4.658254 0.000000 0.000000 -0.000000 0.000000
-22.289413 46.276082 -8.152479 6.844689 -22.554242 -0.726699 10.048584 9.138389 3.532656 5.618951 5.303903 1.830930 7.057575 6.599580 2.372177 5.618951 5.303903 1.830930 2.935328 10.190601 -1.766929 3.568828 -14.927769 -2.586337 12.413575 -3.209105 -3.249909 20.029336 -38.151393 66.575745 59.652773 15.273073 20.659850 -7.295988 4.049063 -0.211147 -2.915461 -3.928528 0.302583 -3.210252 -31.713199 -80.476036 -61.553481 -4.746730 -36.178842 16.359388 4.157220 11.242105 36.284534 -69.882200 -11.092666 153.219198 69.577893 167.722947 -1.994942 -18.616064 -0.124375 -0.018181 -0.092625 0.000221 48.126376 -78.203431 4.196224 168.684079 76.943475 -163.254590 3.311519 -9.606761 -12.209874 0.036999 0.079886 0.007687
-22.289026 46.275222 -8.153464 6.840058 -22.554678 -0.727580 10.046423 9.132553 3.530069 5.619415 5.300447 1.829934 7.058114 6.595274 2.370881 5.619415 5.300447 1.829934 2.931639 10.198197 -1.765401 3.564148 -14.919794 -2.583563 12.408289 -3.201062 -3.247107 20.020318 -38.150274 66.588921 59.654148 15.292133 20.672807 -7.302081 4.057560 -0.244597 -2.908106 -3.930005 0.316663 -3.203202 -31.718778 -80.488493 -61.513020 -4.730317 -36.163938 16.337531 4.169264 11.168565 36.283278 -69.881501 -11.093032 153.201572 69.578661 167.709373 -1.991407 -18.614939 -0.133804 -0.018591 -0.090423 0.001816 48.128967 -78.207891 4.195127 168.676472 76.940132 -163.259166 3.308492 -9.603540 -12.205660 0.035153 0.076620 0.005235
-22.288914 46.274238 -8.154348 6.831836 -22.555355 -0.729102 10.046416 9.127444 3.527401 5.620931 5.296542 1.829287 7.059971 6.590396 2.370028 5.620931 5.296542 1.829287 2.924457 10.206462 -1.763693 3.555566 -14.911114 -2.579702 12.402920 -3.191851 -3.244505 20.012070 -38.151977 66.602775 59.655123 15.311802 20.683354 -7.303753 4.069347 -0.270397 -2.907015 -3.928618 0.329225 -3.181704 -31.722758 -80.507515 -61.479956 -4.719695 -36.159165 16.318124 4.180685 11.106401 36.284168 -69.880263 -11.090896 153.188797 69.581501 167.702047 -1.986838 -18.616676 -0.143090 -0.018691 -0.085584 0.003080 48.149829 -78.214176 4.182862 168.659466 76.936582 -163.270879 3.304522 -9.604814 -12.199937 0.033212 0.076460 0.003868
-22.288968 46.273147 -8.155031 6.823748 -22.556100 -0.731420 10.047502 9.123733 3.523757 5.622498 5.292806 1.828613 7.061893 6.585730 2.369145 5.622498 5.292806 1.828613 2.915702 10.214490 -1.761642 3.545181 -14.902686 -2.575080 12.397371 -3.185928 -3.242341 20.007248 -38.154917 66.616805 59.649765 15.331735 20.685958 -7.298709 4.083189 -0.285093 -2.910077 -3.926850 0.337218 -3.155976 -31.724682 -80.526599 -61.453761 -4.711705 -36.158626 16.295719 4.191080 11.058338 36.282940 -69.879706 -11.084947 153.177078 69.584251 167.694677 -1.983445 -18.619828 -0.150607 -0.018222 -0.080330 0.003803 48.182333 -78.220285 4.161213 168.647668 76.933255 -163.275804 3.303155 -9.609530 -12.193806 0.032057 0.079131 0.003162
-22.289078 46.272021 -8.155293 6.817182 -22.557687 -0.733806 10.049460 9.121821 3.519304 5.623948 5.289982 1.827507 7.063668 6.582210 2.367737 5.623948 5.289982 1.827507 2.905928 10.221247 -1.759368 3.533665 -14.895591 -2.569991 12.390761 -3.185322 -3.240184 20.004151 -38.155596 66.631962 59.639748 15.347426 20.679474 -7.291560 4.095762 -0.289992 -2.917426 -3.924689 0.339151 -3.132755 -31.724343 -80.536432 -61.436768 -4.709263 -36.162495 16.271256 4.204483 11.030307 36.282881 -69.880577 -11.079722 153.167522 69.585021 167.689109 -1.981675 -18.620130 -0.156190 -0.016876 -0.078445 0.004167 48.219317 -78.225373 4.135189 168.645124 76.929759 -163.269579 3.302405 -9.614945 -12.188983 0.032180 0.082286 0.003412
-22.289523 46.270923 -8.154935 6.810315 -22.560834 -0.736646 10.052134 9.120670 3.515483 5.625346 5.287627 1.825942 7.065377 6.579284 2.365760 5.625346 5.287627 1.825942 2.897034 10.228297 -1.756797 3.523033 -14.888191 -2.564795 12.385357 -3.185381 -3.237607 19.996142 -38.155857 66.650554 59.630260 15.358421 20.670874 -7.286202 4.105914 -0.289357 -2.930180 -3.918411 0.336857 -3.114747 -31.723577 -80.532339 -61.432611 -4.711143 -36.168987 16.248709 4.221621 11.015780 36.281647 -69.882608 -11.071538 153.154754 69.584069 167.681192 -1.983355 -18.616708 -0.160419 -0.015007 -0.079846 0.003976 48.246624 -78.230973 4.120576 168.645805 76.926035 -163.258606 3.298455 -9.618341 -12.187844 0.034189 0.083784 0.005707
-22.290331 46.269691 -8.154407 6.805676 -22.562669 -0.740233 10.053667 9.118850 3.511599 5.626403 5.285154 1.823918 7.066651 6.576218 2.363202 5.626403 5.285154 1.823918 2.889273 10.236295 -1.754039 3.513571 -14.879798 -2.559659 12.381198 -3.185523 -3.234626 19.982832 -38.156594 66.670563 59.620942 15.363967 20.663378 -7.278630 4.117693 -0.287447 -2.944951 -3.908840 0.330727 -3.107270 -31.724354 -80.513790 -61.441928 -4.708101 -36.173058 16.229640 4.239669 11.005172 36.284233 -69.886726 -11.068358 153.135750 69.581421 167.668791 -1.988510 -18.611680 -0.163849 -0.012763 -0.082690 0.003485 48.265853 -78.238471 4.112170 168.651725 76.923168 -163.244108 3.292799 -9.618364 -12.188354 0.036871 0.084051 0.009059
